<svg xmlns="http://www.w3.org/2000/svg" viewBox="0 0 512 512">
  <defs>
    <linearGradient id="forge" x1="0%" y1="0%" x2="100%" y2="100%">
      <stop offset="0%" stop-color="#ff8c00"/>
      <stop offset="50%" stop-color="#ff4500"/>
      <stop offset="100%" stop-color="#ffd700"/>
    </linearGradient>
  </defs>
  <path fill="url(#forge)" d="M256 40c40 70-20 110-20 160 0 40 30 60 30 90 0 40-30 70-70 70s-70-30-70-70c0-90 120-140 130-250z"/>
  <path fill="#ffffff33" d="M260 120c15 25-10 50-10 75 0 15 10 25 10 40 0 20-15 35-35 35s-35-15-35-35c0-45 55-75 70-115z"/>
</svg>